<svg width="1167" height="1168" viewBox="0 0 1167 1168" fill="none" xmlns="http://www.w3.org/2000/svg">
<path fill-rule="evenodd" clip-rule="evenodd" d="M563.177 0.752382C668.989 12.4086 710.056 145.897 783.181 223.273C836.971 280.192 883.901 336.941 936.082 395.34C1014.37 482.961 1158.69 535.217 1166.67 652.46C1174.32 764.766 1046.76 835.851 971.782 919.801C898.012 1002.4 836.077 1102.7 731.65 1139.55C625.081 1177.16 494.541 1183.46 399.985 1121.56C307.678 1061.14 328.209 915.251 258.43 829.79C191.975 748.403 46.1856 744.078 10.9346 645.089C-24.0511 546.845 31.3 436.347 86.9025 348.123C138.519 266.224 231.448 228.151 309.656 171.11C393.617 109.873 459.889 -10.6258 563.177 0.752382Z" />
</svg>
